HIERARCHY
ROOT Hips
{
	OFFSET 0.000000 83.214638 0.000000
	CHANNELS 6 Xposition Yposition Zposition Xrotation Yrotation Zrotation
	JOINT Pelvis
	{
		OFFSET 0.000000 0.000000 0.000000
		CHANNELS 3 Xrotation Yrotation Zrotation
		JOINT LeftUpLeg
		{
			OFFSET 8.479700 -4.795502 -0.379100
			CHANNELS 3 Xrotation Yrotation Zrotation
			JOINT LeftLeg
			{
				OFFSET 0.024144 -32.555107 0.112900
				CHANNELS 3 Xrotation Yrotation Zrotation
				JOINT LeftFoot
				{
					OFFSET -0.024144 -32.638630 -3.012600
					CHANNELS 3 Xrotation Yrotation Zrotation
					JOINT LeftToeBase
					{
						OFFSET 0.970200 -13.225400 11.864200
						CHANNELS 3 Xrotation Yrotation Zrotation
						End Site
						{
							OFFSET 0.000000 12.319262 0.000000
						}
					}
					JOINT LFootTongue
					{
						OFFSET 1.142400 -1.059800 6.665200
						CHANNELS 3 Xrotation Yrotation Zrotation
						End Site
						{
							OFFSET 0.000000 12.319262 0.000000
						}
					}
				}
				JOINT LeftPantLeg
				{
					OFFSET 0.918482 -16.533964 -2.284700
					CHANNELS 3 Xrotation Yrotation Zrotation
					End Site
					{
						OFFSET 0.350399 24.744368 0.000000
					}
				}
			}
		}
		JOINT RightUpLeg
		{
			OFFSET -8.479700 -4.795502 -0.379100
			CHANNELS 3 Xrotation Yrotation Zrotation
			JOINT RightLeg
			{
				OFFSET -0.023144 -32.555092 0.112900
				CHANNELS 3 Xrotation Yrotation Zrotation
				JOINT RightFoot
				{
					OFFSET 0.023144 -32.638641 -3.012700
					CHANNELS 3 Xrotation Yrotation Zrotation
					JOINT RightToeBase
					{
						OFFSET -0.970200 -13.225400 11.864200
						CHANNELS 3 Xrotation Yrotation Zrotation
						End Site
						{
							OFFSET 0.000000 12.319244 0.000000
						}
					}
					JOINT RFootTongue
					{
						OFFSET -1.142200 -1.059800 6.665200
						CHANNELS 3 Xrotation Yrotation Zrotation
						End Site
						{
							OFFSET 0.000000 12.319243 0.000000
						}
					}
				}
				JOINT RightPantLeg
				{
					OFFSET -0.919482 -16.533978 -2.284800
					CHANNELS 3 Xrotation Yrotation Zrotation
					End Site
					{
						OFFSET -0.350400 24.744419 0.000000
					}
				}
			}
		}
	}
	JOINT Spine
	{
		OFFSET 0.000000 7.722000 1.166200
		CHANNELS 3 Xrotation Yrotation Zrotation
		JOINT Spine1
		{
			OFFSET 0.000000 12.024101 0.248800
			CHANNELS 3 Xrotation Yrotation Zrotation
			JOINT Spine2
			{
				OFFSET 0.000000 11.502998 -0.491200
				CHANNELS 3 Xrotation Yrotation Zrotation
				JOINT Neck
				{
					OFFSET 0.000000 18.430702 -3.123100
					CHANNELS 3 Xrotation Yrotation Zrotation
					JOINT Head
					{
						OFFSET 0.000000 9.051102 1.034000
						CHANNELS 3 Xrotation Yrotation Zrotation
						JOINT HairB
						{
							OFFSET 0.208400 24.786102 24.822300
							CHANNELS 3 Xrotation Yrotation Zrotation
							End Site
							{
								OFFSET 0.000000 32.263779 0.000000
							}
						}
						JOINT HairA
						{
							OFFSET -7.081100 24.428299 23.196600
							CHANNELS 3 Xrotation Yrotation Zrotation
							End Site
							{
								OFFSET 0.000000 32.263779 0.000000
							}
						}
						JOINT Hat
						{
							OFFSET 16.728800 15.048294 -15.439601
							CHANNELS 3 Xrotation Yrotation Zrotation
							End Site
							{
								OFFSET 0.000000 32.263779 0.000000
							}
						}
					}
				}
				JOINT LeftShoulder
				{
					OFFSET 6.197800 13.665199 -4.064700
					CHANNELS 3 Xrotation Yrotation Zrotation
					JOINT LeftArm
					{
						OFFSET 7.778100 -0.187103 -1.709300
						CHANNELS 3 Xrotation Yrotation Zrotation
						JOINT LeftForeArm
						{
							OFFSET 22.049376 0.000000 0.000000
							CHANNELS 3 Xrotation Yrotation Zrotation
							JOINT LeftHand
							{
								OFFSET 23.009392 0.000000 0.000000
								CHANNELS 3 Xrotation Yrotation Zrotation
								JOINT LeftHandThumb1
								{
									OFFSET 3.507191 -2.063065 3.133727
									CHANNELS 3 Xrotation Yrotation Zrotation
									JOINT LeftHandThumb2
									{
										OFFSET 3.101337 -1.790558 1.790558
										CHANNELS 3 Xrotation Yrotation Zrotation
										JOINT LeftHandThumb3
										{
											OFFSET 3.058640 -1.765907 1.765906
											CHANNELS 3 Xrotation Yrotation Zrotation
											End Site
											{
												OFFSET -0.415260 3.926476 -0.049563
											}
										}
									}
								}
								JOINT LeftHandIndex1
								{
									OFFSET 11.334419 -0.901459 3.706815
									CHANNELS 3 Xrotation Yrotation Zrotation
									JOINT LeftHandIndex2
									{
										OFFSET 3.283112 0.000000 0.000000
										CHANNELS 3 Xrotation Yrotation Zrotation
										JOINT LeftHandIndex3
										{
											OFFSET 3.323853 0.000000 0.000000
											CHANNELS 3 Xrotation Yrotation Zrotation
											End Site
											{
												OFFSET -1.135597 3.097809 0.402452
											}
										}
									}
								}
								JOINT LeftHandMiddle1
								{
									OFFSET 11.335861 0.000000 0.000000
									CHANNELS 3 Xrotation Yrotation Zrotation
									JOINT LeftHandMiddle2
									{
										OFFSET 3.410492 0.000000 0.000000
										CHANNELS 3 Xrotation Yrotation Zrotation
										JOINT LeftHandMiddle3
										{
											OFFSET 3.312172 0.000000 0.000000
											CHANNELS 3 Xrotation Yrotation Zrotation
											End Site
											{
												OFFSET -1.150200 3.080154 0.400270
											}
										}
									}
								}
								JOINT LeftHandRing1
								{
									OFFSET 11.514786 -0.013176 -3.003090
									CHANNELS 3 Xrotation Yrotation Zrotation
									JOINT LeftHandRing2
									{
										OFFSET 3.053307 0.000000 0.000000
										CHANNELS 3 Xrotation Yrotation Zrotation
										JOINT LeftHandRing3
										{
											OFFSET 3.295807 0.000000 0.000000
											CHANNELS 3 Xrotation Yrotation Zrotation
											End Site
											{
												OFFSET -1.281006 3.013344 0.375733
											}
										}
									}
								}
								JOINT LeftHandPinky1
								{
									OFFSET 10.518692 -0.960396 -5.730441
									CHANNELS 3 Xrotation Yrotation Zrotation
									JOINT LeftHandPinky2
									{
										OFFSET 2.861649 0.000000 0.000000
										CHANNELS 3 Xrotation Yrotation Zrotation
										JOINT LeftHandPinky3
										{
											OFFSET 2.863380 0.000000 0.000000
											CHANNELS 3 Xrotation Yrotation Zrotation
											End Site
											{
												OFFSET -0.843597 2.711159 0.369971
											}
										}
									}
								}
							}
							JOINT LSleeve
							{
								OFFSET 6.676277 -0.344902 -1.011730
								CHANNELS 3 Xrotation Yrotation Zrotation
								End Site
								{
									OFFSET 0.000000 14.885353 0.000000
								}
							}
						}
					}
				}
				JOINT RightShoulder
				{
					OFFSET -6.197800 13.665199 -4.064700
					CHANNELS 3 Xrotation Yrotation Zrotation
					JOINT RightArm
					{
						OFFSET -7.778100 -0.187103 -1.709300
						CHANNELS 3 Xrotation Yrotation Zrotation
						JOINT RightForeArm
						{
							OFFSET -22.049376 0.000000 0.000000
							CHANNELS 3 Xrotation Yrotation Zrotation
							JOINT RightHand
							{
								OFFSET -23.009392 0.000000 0.000000
								CHANNELS 3 Xrotation Yrotation Zrotation
								JOINT RightHandThumb1
								{
									OFFSET -3.507191 -2.063065 3.133727
									CHANNELS 3 Xrotation Yrotation Zrotation
									JOINT RightHandThumb2
									{
										OFFSET -3.101337 -1.790558 1.790558
										CHANNELS 3 Xrotation Yrotation Zrotation
										JOINT RightHandThumb3
										{
											OFFSET -3.058640 -1.765907 1.765906
											CHANNELS 3 Xrotation Yrotation Zrotation
											End Site
											{
												OFFSET 0.415260 3.926476 -0.049563
											}
										}
									}
								}
								JOINT RightHandIndex1
								{
									OFFSET -11.334419 -0.901459 3.706815
									CHANNELS 3 Xrotation Yrotation Zrotation
									JOINT RightHandIndex2
									{
										OFFSET -3.283112 0.000000 0.000000
										CHANNELS 3 Xrotation Yrotation Zrotation
										JOINT RightHandIndex3
										{
											OFFSET -3.323853 0.000000 0.000000
											CHANNELS 3 Xrotation Yrotation Zrotation
											End Site
											{
												OFFSET 1.135597 3.097809 0.402452
											}
										}
									}
								}
								JOINT RightHandMiddle1
								{
									OFFSET -11.335861 0.000000 0.000000
									CHANNELS 3 Xrotation Yrotation Zrotation
									JOINT RightHandMiddle2
									{
										OFFSET -3.410492 0.000000 0.000000
										CHANNELS 3 Xrotation Yrotation Zrotation
										JOINT RightHandMiddle3
										{
											OFFSET -3.312172 0.000000 0.000000
											CHANNELS 3 Xrotation Yrotation Zrotation
											End Site
											{
												OFFSET 1.150200 3.080154 0.400270
											}
										}
									}
								}
								JOINT RightHandRing1
								{
									OFFSET -11.514786 -0.013176 -3.003090
									CHANNELS 3 Xrotation Yrotation Zrotation
									JOINT RightHandRing2
									{
										OFFSET -3.053307 0.000000 0.000000
										CHANNELS 3 Xrotation Yrotation Zrotation
										JOINT RightHandRing3
										{
											OFFSET -3.295807 0.000000 0.000000
											CHANNELS 3 Xrotation Yrotation Zrotation
											End Site
											{
												OFFSET 1.281006 3.013344 0.375733
											}
										}
									}
								}
								JOINT RightHandPinky1
								{
									OFFSET -10.518692 -0.960396 -5.730441
									CHANNELS 3 Xrotation Yrotation Zrotation
									JOINT RightHandPinky2
									{
										OFFSET -2.861649 0.000000 0.000000
										CHANNELS 3 Xrotation Yrotation Zrotation
										JOINT RightHandPinky3
										{
											OFFSET -2.863380 0.000000 0.000000
											CHANNELS 3 Xrotation Yrotation Zrotation
											End Site
											{
												OFFSET 0.843597 2.711159 0.369971
											}
										}
									}
								}
							}
							JOINT RSleeve
							{
								OFFSET -6.676277 -0.344902 -1.011730
								CHANNELS 3 Xrotation Yrotation Zrotation
								End Site
								{
									OFFSET 0.000000 14.885353 0.000000
								}
							}
						}
					}
				}
				JOINT Backpack
				{
					OFFSET 0.000000 -2.471497 36.677502
					CHANNELS 3 Xrotation Yrotation Zrotation
					End Site
					{
						OFFSET 0.000000 20.427315 0.000000
					}
				}
				JOINT Hood
				{
					OFFSET 0.000000 18.754097 -10.431000
					CHANNELS 3 Xrotation Yrotation Zrotation
					JOINT Hood1
					{
						OFFSET 0.000000 -5.011002 -7.685901
						CHANNELS 3 Xrotation Yrotation Zrotation
						End Site
						{
							OFFSET 0.000000 9.175140 0.000000
						}
					}
				}
				JOINT LHoodieString
				{
					OFFSET 5.250500 16.397697 3.089900
					CHANNELS 3 Xrotation Yrotation Zrotation
					JOINT LHoodieString1
					{
						OFFSET 0.257700 -6.364304 3.694600
						CHANNELS 3 Xrotation Yrotation Zrotation
						JOINT LHoodieString2
						{
							OFFSET 0.000000 -9.643799 2.679100
							CHANNELS 3 Xrotation Yrotation Zrotation
							End Site
							{
								OFFSET 0.000000 10.009018 0.000000
							}
						}
					}
				}
				JOINT RHoodieString
				{
					OFFSET -5.250500 16.397697 3.089900
					CHANNELS 3 Xrotation Yrotation Zrotation
					JOINT RHoodieString1
					{
						OFFSET -0.257700 -6.364304 3.694600
						CHANNELS 3 Xrotation Yrotation Zrotation
						JOINT RHoodieString2
						{
							OFFSET 0.000000 -9.643799 2.679100
							CHANNELS 3 Xrotation Yrotation Zrotation
							End Site
							{
								OFFSET 0.000000 10.009018 0.000000
							}
						}
					}
				}
			}
			JOINT LBackpack_Strap
			{
				OFFSET 15.223200 -7.719803 -6.610900
				CHANNELS 3 Xrotation Yrotation Zrotation
				End Site
				{
					OFFSET 0.000000 16.040596 0.000000
				}
			}
			JOINT RBackpack_Strap
			{
				OFFSET -15.223000 -7.719803 -6.610900
				CHANNELS 3 Xrotation Yrotation Zrotation
				End Site
				{
					OFFSET 0.000000 16.040596 0.000000
				}
			}
		}
	}
	JOINT BoyFacialAnim_Joint
	{
		OFFSET 1.000000 -82.208099 -1.550900
		CHANNELS 3 Xrotation Yrotation Zrotation
		End Site
		{
			OFFSET 0.000000 30.012791 0.000000
		}
	}
}
MOTION
Frames: 5
Frame Time: 0.033333
0.543568 76.847687 -0.108477 13.305308 -19.104263 -1.322702 -0.000002 0.000001 0.000001 -47.520344 2.218357 16.697202 47.273679 -6.785375 4.290617 -13.294327 0.710124 -9.538052 -0.000000 -0.000000 -0.000000 -0.000000 -0.000000 -0.000000 -0.000000 0.000000 0.000000 -40.304335 -7.320668 -11.554411 44.097662 -5.241504 -3.134387 -10.557463 -1.267565 9.248837 -0.000000 -0.000002 0.000000 -0.000000 -0.000002 0.000000 -0.000000 -0.000001 0.000001 12.982170 1.098972 -0.831593 9.239555 0.680569 -1.025557 9.226014 0.805034 -1.081465 -6.515422 2.468528 0.022225 -20.981667 12.166147 1.285151 0.000001 0.000000 -0.000000 0.000001 0.000000 -0.000000 0.000001 0.000000 -0.000000 3.096376 -11.580920 -10.492355 -34.211478 -8.851538 -47.898703 -0.002843 -89.385361 -0.002799 6.099642 34.115255 6.421301 18.953751 14.040152 -13.017214 8.086017 39.500022 -12.581815 -0.000003 -0.000001 0.000001 0.245066 1.824087 -15.301531 0.353496 2.181926 -18.403607 -0.000003 -0.000000 -0.000002 0.244555 1.822243 -15.285521 0.354106 2.183740 -18.419620 0.000003 -0.000002 -0.000002 0.245073 1.824095 -15.301519 0.353496 2.181906 -18.403610 -0.000000 0.000001 -0.000002 1.302029 5.738859 -14.860839 0.354794 -1.875489 -18.888671 0.000001 -0.000000 -0.000002 0.000001 0.000000 0.000000 6.560986 18.235977 9.445092 -15.526007 19.532109 41.638087 0.000118 97.452941 -0.000125 21.898469 -4.751159 -13.049642 18.664061 -14.601233 4.441847 12.989128 -17.819332 6.026352 0.000001 -0.000004 0.000001 0.467311 -2.510503 21.086157 0.086325 -1.094381 9.018449 0.000005 -0.000001 -0.000002 0.467320 -2.510505 21.086153 0.086322 -1.094379 9.018453 0.000005 -0.000000 0.000003 0.467319 -2.510494 21.086158 0.086325 -1.094391 9.018449 0.000001 0.000001 -0.000001 0.467317 -2.510493 21.086155 0.086329 -1.094386 9.018438 -0.000007 -0.000002 -0.000000 0.000003 -0.000003 -0.000001 0.000003 0.000000 -0.000000 0.000003 0.000000 -0.000000 0.000003 0.000000 -0.000000 0.000003 0.000000 -0.000000 0.000003 0.000000 -0.000000 0.000003 -0.000001 -0.000000 0.000003 0.000000 -0.000000 0.000003 0.000000 -0.000000 0.000003 -0.000001 -0.000000 -0.000003 0.000002 -0.000000 -0.000003 0.000002 -0.000000 -0.000002 0.000001 0.000001 
0.655449 77.178375 -0.095734 12.768064 -18.909022 -1.433386 0.000001 0.000000 0.000000 -46.477996 2.710686 16.559570 46.091657 -7.576798 4.196940 -12.709251 1.126185 -9.295670 -0.000000 -0.000000 0.000000 -0.000000 -0.000000 0.000000 -0.000001 0.000000 -0.000000 -39.064758 -7.489989 -11.659072 42.707489 -5.406764 -3.212414 -9.888803 -1.280682 9.707201 -0.000000 0.000002 0.000000 -0.000000 0.000002 0.000000 0.000001 -0.000003 -0.000000 13.156818 1.134146 -0.579623 9.302215 0.689998 -0.883528 9.288777 0.815443 -0.942343 -7.101242 2.378205 0.249341 -20.146053 12.000798 1.146815 -0.000001 0.000000 -0.000000 -0.000001 0.000000 -0.000000 -0.000001 0.000000 -0.000000 3.241459 -11.767000 -10.571354 -33.440965 -9.194397 -48.608124 0.002403 -88.733016 0.002464 7.657118 32.721954 5.866992 19.359247 13.794417 -13.216119 8.870405 39.010636 -13.070490 0.000000 -0.000003 0.000001 0.227887 1.760240 -14.753052 0.330916 2.112829 -17.800532 -0.000001 0.000000 -0.000000 0.227416 1.758360 -14.737062 0.331491 2.114661 -17.816542 -0.000001 0.000000 -0.000001 0.227900 1.760234 -14.753065 0.330908 2.112824 -17.800532 -0.000001 0.000001 -0.000002 1.247090 5.684947 -14.308819 0.331623 -1.944398 -18.287207 0.000001 -0.000003 -0.000002 0.000000 -0.000000 0.000002 6.673646 18.224167 9.446308 -15.463055 19.677683 41.545910 0.000113 97.921403 -0.000099 21.660485 -3.649956 -13.412128 18.822463 -14.719824 4.658151 13.241187 -17.862403 6.143820 0.000000 0.000000 -0.000004 0.476957 -2.535309 21.304784 0.092877 -1.135091 9.357019 -0.000000 -0.000000 0.000002 0.476957 -2.535309 21.304793 0.092874 -1.135097 9.357025 0.000001 -0.000001 0.000001 0.476954 -2.535298 21.304794 0.092875 -1.135097 9.357006 0.000002 0.000002 0.000001 0.476950 -2.535309 21.304781 0.092882 -1.135092 9.357008 -0.000001 -0.000001 0.000002 0.000001 -0.000000 -0.000001 0.000002 0.000001 -0.000001 0.000002 0.000001 -0.000001 0.000002 0.000001 -0.000001 0.000002 0.000001 -0.000001 0.000002 0.000001 -0.000001 0.000002 0.000000 -0.000000 0.000002 0.000001 -0.000001 0.000002 0.000001 -0.000001 0.000002 0.000000 -0.000000 -0.000001 -0.000001 -0.000000 -0.000001 -0.000001 -0.000000 0.000001 0.000000 0.000000 
0.761404 77.451660 -0.071989 12.335233 -18.760571 -1.511723 0.000000 0.000001 -0.000000 -45.618007 3.147110 16.455230 45.095638 -8.060357 4.085638 -12.237656 1.254970 -9.056678 0.000000 0.000000 -0.000000 0.000000 0.000000 0.000000 0.000001 0.000000 0.000001 -38.027877 -7.647539 -11.744695 41.503129 -5.532358 -3.319422 -9.307601 -1.292074 10.134612 -0.000000 -0.000001 0.000000 -0.000000 -0.000001 0.000000 0.000001 0.000002 -0.000000 13.312705 1.168002 -0.352589 9.356513 0.702618 -0.751177 9.343107 0.829002 -0.812825 -7.660629 2.299752 0.439060 -19.347061 11.874738 0.988755 0.000001 -0.000000 0.000000 0.000001 -0.000000 0.000000 0.000001 -0.000000 0.000000 3.379742 -11.942489 -10.647446 -32.846335 -9.583328 -49.320765 -0.000713 -88.043290 -0.000764 9.139595 31.484081 5.459660 20.439481 13.120322 -13.741536 10.900865 37.663398 -14.334945 -0.000000 0.000002 0.000002 0.186328 1.594106 -13.332759 0.274654 1.928943 -16.205075 0.000000 0.000000 -0.000002 0.185887 1.592229 -13.316759 0.275185 1.930797 -16.221091 -0.000000 -0.000001 -0.000002 0.186327 1.594096 -13.332762 0.274657 1.928938 -16.205083 0.000003 0.000000 -0.000002 1.107286 5.542877 -12.879672 0.273790 -2.127799 -16.695795 -0.000002 0.000000 0.000002 -0.000001 0.000002 0.000001 6.798545 18.221661 9.410226 -15.383888 19.792911 41.494178 0.000206 98.289673 -0.000219 21.474962 -2.568145 -13.774491 19.256334 -15.035613 5.243819 13.923526 -17.973971 6.460711 0.000000 -0.000000 -0.000004 0.503310 -2.601819 21.893116 0.111660 -1.243705 10.261671 -0.000000 0.000002 0.000000 0.503315 -2.601826 21.893108 0.111655 -1.243692 10.261691 0.000002 -0.000002 0.000001 0.503313 -2.601810 21.893118 0.111656 -1.243694 10.261682 0.000003 0.000004 -0.000004 0.503313 -2.601818 21.893104 0.111657 -1.243694 10.261671 -0.000001 0.000001 0.000000 -0.000002 -0.000000 0.000002 -0.000003 0.000000 0.000000 -0.000003 0.000000 0.000000 -0.000003 0.000000 0.000000 -0.000003 0.000000 0.000000 -0.000003 0.000000 0.000000 -0.000002 0.000000 0.000000 -0.000003 0.000000 0.000000 -0.000003 0.000000 0.000000 -0.000002 0.000000 0.000000 0.000002 0.000001 0.000000 0.000002 0.000001 0.000000 0.000000 0.000001 -0.000000 
0.867224 77.637268 -0.059990 12.029012 -18.674967 -1.550948 0.000000 -0.000000 -0.000000 -45.035505 3.485951 16.376405 44.416413 -8.355867 3.973114 -11.910205 1.276397 -8.833073 -0.000000 -0.000001 0.000000 -0.000000 -0.000001 -0.000000 0.000001 -0.000001 0.000000 -37.315550 -7.762633 -11.851721 40.637508 -5.583290 -3.392947 -8.864206 -1.302153 10.483789 0.000000 0.000002 -0.000000 0.000000 0.000002 -0.000000 0.000003 -0.000000 0.000003 13.439073 1.206959 -0.150499 9.397047 0.721937 -0.629157 9.383466 0.849601 -0.693604 -8.185159 2.237547 0.580537 -18.608096 11.788575 0.823148 -0.000001 -0.000000 -0.000000 -0.000001 -0.000000 -0.000000 -0.000001 -0.000000 -0.000000 3.506089 -12.105173 -10.717422 -32.435004 -9.982208 -50.071287 -0.001298 -87.319836 -0.001240 10.498345 30.542547 5.208422 21.984485 12.105918 -14.480915 13.666531 35.622951 -16.056212 -0.000001 -0.000004 0.000001 0.135881 1.363878 -11.378363 0.203556 1.665018 -13.937891 -0.000000 0.000003 -0.000003 0.135506 1.361981 -11.362361 0.204012 1.666898 -13.953882 0.000003 0.000002 -0.000003 0.135882 1.363875 -11.378375 0.203552 1.665027 -13.937879 0.000001 0.000001 -0.000004 0.920815 5.341765 -10.913857 0.200394 -2.391091 -14.433711 -0.000002 -0.000000 0.000001 0.000001 -0.000001 0.000001 6.921143 18.229923 9.373425 -15.299583 19.932505 41.451510 0.000523 98.506224 -0.000496 21.369387 -1.578099 -14.176920 19.906962 -15.484850 6.104510 14.925483 -18.124877 6.922875 0.000000 -0.000001 0.000002 0.542920 -2.698174 22.749735 0.141777 -1.399687 11.565988 -0.000003 0.000002 0.000004 0.542915 -2.698183 22.749745 0.141779 -1.399672 11.566008 0.000001 -0.000001 0.000003 0.542921 -2.698175 22.749748 0.141761 -1.399670 11.566002 0.000000 0.000001 -0.000005 0.542916 -2.698164 22.749740 0.141766 -1.399695 11.565979 0.000001 -0.000001 -0.000002 -0.000000 -0.000000 0.000003 0.000002 -0.000000 -0.000000 0.000002 -0.000000 -0.000000 0.000002 -0.000000 -0.000000 0.000002 -0.000000 -0.000000 0.000002 -0.000000 -0.000000 0.000002 -0.000000 0.000001 0.000002 -0.000000 -0.000000 0.000002 -0.000000 -0.000000 0.000002 -0.000000 0.000001 -0.000001 0.000000 -0.000001 -0.000001 0.000000 -0.000001 0.000000 -0.000000 -0.000000 
0.971035 77.658966 -0.066578 12.024284 -18.688241 -1.518391 -0.000001 0.000000 -0.000000 -45.051453 3.613859 16.333911 44.372683 -8.492188 3.896873 -11.857335 1.332385 -8.673954 -0.000000 -0.000000 -0.000000 -0.000000 -0.000000 -0.000000 0.000001 0.000001 0.000002 -37.270532 -7.768678 -11.989239 40.435680 -5.553201 -3.397002 -8.694197 -1.325697 10.758264 -0.000000 0.000000 -0.000000 -0.000000 0.000000 -0.000000 0.000003 -0.000002 0.000001 13.529654 1.256331 0.030174 9.420860 0.750416 -0.516769 9.406927 0.880068 -0.583991 -8.670147 2.194120 0.667951 -17.944415 11.739504 0.660102 0.000001 0.000000 0.000000 0.000001 0.000000 0.000000 0.000001 0.000000 0.000000 3.617053 -12.254043 -10.779056 -32.202470 -10.361507 -50.886777 0.000840 -86.567669 0.000808 11.704267 29.995322 5.098753 23.787382 10.844691 -15.323680 16.686434 33.083254 -17.935525 0.000002 -0.000001 0.000002 0.089461 1.108612 -9.227433 0.134494 1.356915 -11.319410 0.000003 -0.000000 -0.000004 0.089161 1.106718 -9.211423 0.134865 1.358799 -11.335416 0.000000 -0.000001 0.000002 0.089468 1.108607 -9.227439 0.134493 1.356905 -11.319418 -0.000001 -0.000001 0.000001 0.723758 5.113153 -8.751435 0.128633 -2.698585 -11.820236 -0.000000 -0.000001 -0.000000 -0.000000 -0.000001 -0.000000 7.038731 18.246352 9.336986 -15.236738 20.136987 41.419814 0.000184 98.538825 -0.000224 21.363638 -0.734518 -14.652212 20.714058 -16.004673 7.145449 16.135806 -18.286788 7.475857 0.000001 -0.000000 0.000001 0.592100 -2.812539 23.773274 0.181781 -1.582584 13.103506 0.000001 0.000001 0.000004 0.592097 -2.812538 23.773281 0.181788 -1.582580 13.103521 0.000004 0.000000 0.000003 0.592104 -2.812527 23.773276 0.181791 -1.582597 13.103505 -0.000002 -0.000001 0.000005 0.592103 -2.812527 23.773279 0.181788 -1.582594 13.103504 0.000004 -0.000001 -0.000002 0.000001 -0.000001 0.000001 0.000004 0.000001 -0.000001 0.000004 0.000001 -0.000001 0.000004 0.000001 -0.000001 0.000004 0.000001 -0.000001 0.000004 0.000001 -0.000001 0.000002 0.000000 0.000000 0.000004 0.000001 -0.000001 0.000004 0.000001 -0.000001 0.000002 0.000000 0.000000 0.000003 0.000001 -0.000001 0.000003 0.000001 -0.000001 -0.000001 0.000000 -0.000000 
